# xmcd
#
# Track frame offsets: 
#        150
#        14100
#        25677
#        40857
#        53685
#        78810
#        98220
#        110109
#        131523
#        147876
#        161868
#        178626
#        204645
#        221607
#        246903
#        262020
#        279954
#
# Disc length: 3899 seconds
#
# Revision: 0
# Processed by: cddbd v1.5.2PL0 Copyright (c) Steve Scherf et al.
# Submitted via: ExactAudioCopy v0.95b4
#
DISCID=f50f3911
DTITLE=Rick Estrin - On the Harp Side
DYEAR=2008
DGENRE=Blues
TTITLE0=Headin' Out
TTITLE1=Tell Me Mama
TTITLE2=Fattening Frogs for Snakes
TTITLE3=Tell Me Baby
TTITLE4=Blues for Doe
TTITLE5=Porn Bred
TTITLE6=Gangster Blues
TTITLE7=Don't Lose Your Eye
TTITLE8=Big and Fat
TTITLE9=Harlem Nocturne
TTITLE10=Too Young to Know
TTITLE11=Gettin' Out of Town
TTITLE12=The Lottery Blues
TTITLE13=The Scissorbill
TTITLE14=Keep It To Yourself
TTITLE15=Murmur Low
TTITLE16=Dog On Dog
EXTD=
EXTT0=
EXTT1=
EXTT2=
EXTT3=
EXTT4=
EXTT5=
EXTT6=
EXTT7=
EXTT8=
EXTT9=
EXTT10=
EXTT11=
EXTT12=
EXTT13=
EXTT14=
EXTT15=
EXTT16=
PLAYORDER=
